<svg xmlns="http://www.w3.org/2000/svg" viewBox="0 0 512 512" style="height: 512px; width: 512px;"><g class="" style="" transform="translate(0,0)"><g><path d="M18.355 18.375L18.355 53.21L89.04 99.51L46.447 157.22L127.477 129.828L134.5 160.326L190.566 165.582L200.492 208.802L164.869 225.736L124.571 195.951L54.489 258.441L126.907 234.496L149.685 278.883L194.645 264.51L226.845 208.592C216.607 184.792 217.169 156.672 231.028 132.596C238.236 120.066 248.113 110.092 259.672 103.021C262.002 102.346 268.382 97.504 271.32 97.219C282.835 92.439 295.302 90.132 307.857 90.685C313.545 90.935 319.194 91.75 324.72 93.118L336.808 96.108L296.468 165.608C293.012 171.61 295.193 179.698 300.363 182.693L300.365 182.695C305.509 185.671 312.732 183.47 316.379 177.135L316.389 177.121L356.739 107.603L365.331 116.573C390.788 143.143 397.326 184.313 378.028 217.833C364.092 242.038 339.948 256.145 314.352 259.073L284.442 311.01L311.459 334.365L291.539 378.228L377.452 445.912L333.827 371.66L371.612 338.45L419.502 364.734L367.804 297.954L348.427 330.324L324.307 286.474L386.797 253.768L404.317 293.482L434.687 267.202L467.392 318.012L443.448 229.242L413.66 253.768L408.988 187.191L484.326 138.719L402.539 134.129L431.155 78.309L467.31 104.894L493.645 88.554L493.645 18.374L491.015 18.374L456.878 50.53L415.41 27.757L370.31 89.384L335.74 73.222L352.396 20.734L274.092 74.328L249.894 18.378L184.111 18.378L178.885 19.008L230.861 52.298L218.014 113.618L167.204 122.378L94.877 18.378L18.354 18.378Z" class="" fill="#fbbf24" fill-opacity="1"></path><path d="M304.56 109.3C292.16 109.218 279.928 112.562 269.422 118.98L269.32 119.04C260.414 124.513 252.886 132.083 247.227 141.918L247.227 141.92C235.631 162.063 235.835 185.666 245.609 205L247.886 209.504L161.194 360.057L156.126 360.327C136.142 361.387 116.826 371.667 104.876 389.247C97.499 399.94 93.163 412.879 93.163 426.799C93.163 463.345 122.991 493.173 159.538 493.173C196.084 493.173 225.912 463.345 225.912 426.798C225.912 421.741 225.322 416.821 224.242 412.084C224.142 411.627 224.035 411.174 223.926 410.719C223.876 410.519 223.831 410.319 223.779 410.119C222.587 405.353 220.862 400.736 218.636 396.356L216.336 391.843L303.034 241.273L308.104 241.003C329.789 239.85 350.204 228.709 361.834 208.511L361.831 208.511C374.641 186.261 372.731 159.897 359.716 139.701L332.576 186.461C324.266 200.895 305.738 207.399 291.001 198.868L291 198.868C276.287 190.346 271.77 171.056 280.27 156.285L280.28 156.269L307.486 109.401C307.336 109.394 307.188 109.366 307.039 109.361C306.213 109.324 305.386 109.303 304.559 109.298Z" class="" fill="#000000" fill-opacity="1"></path><path d="M159.54 379.1C185.914 379.023 207.314 400.423 207.236 426.797C207.313 453.171 185.913 474.571 159.539 474.493C133.164 474.571 111.764 453.171 111.843 426.796C111.764 400.421 133.163 379.02 159.538 379.098Z" class="selected" fill="#000000" fill-opacity="1"></path></g></g></svg>